<?xml version="1.0" encoding="UTF-8"?>
<svg xmlns="http://www.w3.org/2000/svg" xmlns:xlink="http://www.w3.org/1999/xlink" width="854" height="480" viewBox="0 0 854 480">
<defs>
<g>
<g id="glyph-0-0">
<path d="M 0.546875 -2.328125 L 0.140625 -2.328125 L 0.140625 -2.59375 L 0.546875 -2.59375 L 0.546875 -3.40625 L 0.984375 -3.40625 L 0.984375 -2.59375 L 1.84375 -2.59375 L 1.84375 -2.328125 L 0.984375 -2.328125 L 0.984375 -0.6875 C 0.984375 -0.46875 1.003906 -0.328125 1.046875 -0.265625 C 1.097656 -0.203125 1.179688 -0.171875 1.296875 -0.171875 C 1.410156 -0.171875 1.492188 -0.203125 1.546875 -0.265625 C 1.597656 -0.335938 1.625 -0.453125 1.625 -0.609375 L 1.96875 -0.609375 C 1.957031 -0.367188 1.894531 -0.191406 1.78125 -0.078125 C 1.664062 0.0234375 1.488281 0.078125 1.25 0.078125 C 0.988281 0.078125 0.804688 0.0195312 0.703125 -0.09375 C 0.597656 -0.21875 0.546875 -0.414062 0.546875 -0.6875 Z "/>
</g>
<g id="glyph-0-1">
<path d="M 2.5 0.984375 L 2.5 1.171875 L 0 1.171875 L 0 0.984375 Z "/>
</g>
<g id="glyph-0-2">
<path d="M 0.703125 0 L 0.703125 -0.265625 L 1.34375 -0.265625 L 1.34375 -3.296875 L 0.609375 -2.8125 L 0.609375 -3.140625 L 1.5 -3.71875 L 1.84375 -3.71875 L 1.84375 -0.265625 L 2.46875 -0.265625 L 2.46875 0 Z "/>
</g>
</g>
</defs>
<g fill="rgb(100%, 100%, 100%)" fill-opacity="1">
<use xlink:href="#glyph-0-0" x="30" y="24.641602"/>
<use xlink:href="#glyph-0-1" x="32" y="24.641602"/>
<use xlink:href="#glyph-0-2" x="35" y="24.641602"/>
</g>
</svg>
